<?xml version="1.0" standalone="no"?>
<!DOCTYPE svg PUBLIC "-//W3C//DTD SVG 20010904//EN"
 "http://www.w3.org/TR/2001/REC-SVG-20010904/DTD/svg10.dtd">
<svg version="1.0" xmlns="http://www.w3.org/2000/svg"
 width="350.000000pt" height="350.000000pt" viewBox="0 0 350.000000 350.000000"
 preserveAspectRatio="xMidYMid meet">
<metadata>
Created by potrace 1.11, written by Peter Selinger 2001-2013
</metadata>
<g transform="translate(0.000000,350.000000) scale(0.100000,-0.100000)"
fill="#000000" stroke="none">
<path d="M1600 3449 c-270 -22 -552 -116 -770 -257 -172 -111 -368 -299 -489
-468 -72 -101 -179 -312 -215 -425 -102 -319 -112 -705 -26 -1034 95 -362 337
-704 637 -902 273 -179 637 -288 1003 -298 155 -5 155 -5 90 10 -81 18 -214
82 -299 143 -82 58 -235 204 -311 297 -184 225 -328 521 -387 795 -22 107 -25
380 -4 485 70 353 278 643 575 801 159 85 305 120 453 112 160 -10 302 -84
433 -226 l71 -77 -153 -5 c-145 -5 -156 -7 -220 -37 -299 -141 -299 -561 0
-701 l57 -27 420 -7 c231 -5 548 -7 705 -5 l285 2 8 70 c9 90 -8 322 -34 450
-85 421 -338 792 -710 1041 -312 209 -694 299 -1119 263z"/>
</g>
</svg>
